<svg width="13" height="13" viewBox="0 0 13 13" fill="none" xmlns="http://www.w3.org/2000/svg">
<g clip-path="url(#clip0_369_5590)">
<path d="M2.32236 7.50938H1.80361C1.52846 7.50938 1.26456 7.40007 1.06999 7.2055C0.875421 7.01093 0.766113 6.74704 0.766113 6.47187V1.80312C0.766113 1.52797 0.875421 1.26408 1.06999 1.0695C1.26456 0.874933 1.52846 0.765625 1.80361 0.765625H6.47236C6.74752 0.765625 7.01142 0.874933 7.20599 1.0695C7.40056 1.26408 7.50987 1.52797 7.50987 1.80312V2.32187M5.43486 4.39688H10.1036C10.6766 4.39688 11.1411 4.86138 11.1411 5.43437V10.1031C11.1411 10.6761 10.6766 11.1406 10.1036 11.1406H5.43486C4.86187 11.1406 4.39737 10.6761 4.39737 10.1031V5.43437C4.39737 4.86138 4.86187 4.39688 5.43486 4.39688Z" stroke="white" stroke-width="1.53231" stroke-linecap="round" stroke-linejoin="round"/>
</g>
<defs>
<clipPath id="clip0_369_5590">
<rect width="12.45" height="12.45" fill="white"/>
</clipPath>
</defs>
</svg>
