<svg width="34" height="34" viewBox="0 0 34 34" fill="none" xmlns="http://www.w3.org/2000/svg">
<path d="M7.08333 26.9167H9.10208L22.95 13.0687L20.9313 11.05L7.08333 24.8979V26.9167ZM4.25 29.75V23.7292L22.95 5.06458C23.2333 4.80486 23.5462 4.60417 23.8885 4.4625C24.2309 4.32083 24.591 4.25 24.9687 4.25C25.3465 4.25 25.7125 4.32083 26.0667 4.4625C26.4208 4.60417 26.7278 4.81667 26.9875 5.1L28.9354 7.08333C29.2188 7.34306 29.4253 7.65 29.5552 8.00417C29.6851 8.35833 29.75 8.7125 29.75 9.06667C29.75 9.44444 29.6851 9.80451 29.5552 10.1469C29.4253 10.4892 29.2188 10.8021 28.9354 11.0854L10.2708 29.75H4.25ZM21.9229 12.0771L20.9313 11.05L22.95 13.0687L21.9229 12.0771Z" fill="#FEF7FF"/>
</svg>
