<svg width="15" height="21" viewBox="0 0 15 21" fill="none" xmlns="http://www.w3.org/2000/svg">
<g clip-path="url(#clip0_369_5567)">
<path d="M7.0125 20.025C6.77875 20.025 6.5784 19.9582 6.41143 19.8247C6.24446 19.6913 6.11924 19.5161 6.03576 19.2991C5.71852 18.3646 5.31781 17.4885 4.83362 16.6708C4.36611 15.8531 3.70661 14.8936 2.85509 13.7922C2.00357 12.6908 1.31067 11.6395 0.776384 10.6383C0.258794 9.63703 0 8.42719 0 7.00875C0 5.05631 0.676205 3.40425 2.02862 2.05256C3.39773 0.684187 5.05902 0 7.0125 0C8.96598 0 10.6189 0.684187 11.9713 2.05256C13.3405 3.40425 14.025 5.05631 14.025 7.00875C14.025 8.52732 13.7328 9.79556 13.1484 10.8135C12.5807 11.8148 11.9212 12.8077 11.1699 13.7922C10.2683 14.9937 9.58375 15.995 9.11625 16.796C8.66545 17.5802 8.28978 18.4147 7.98924 19.2991C7.90576 19.5327 7.77218 19.7163 7.58853 19.8498C7.42156 19.9666 7.22956 20.025 7.0125 20.025ZM7.0125 9.51188C7.71375 9.51188 8.30648 9.2699 8.79067 8.78597C9.27486 8.30203 9.51696 7.70963 9.51696 7.00875C9.51696 6.30788 9.27486 5.71547 8.79067 5.23153C8.30648 4.7476 7.71375 4.50563 7.0125 4.50563C6.31125 4.50563 5.71852 4.7476 5.23433 5.23153C4.75014 5.71547 4.50804 6.30788 4.50804 7.00875C4.50804 7.70963 4.75014 8.30203 5.23433 8.78597C5.71852 9.2699 6.31125 9.51188 7.0125 9.51188Z" fill="white"/>
</g>
<defs>
<clipPath id="clip0_369_5567">
<rect width="14.025" height="20.025" fill="white"/>
</clipPath>
</defs>
</svg>
