<svg width="19" height="15" viewBox="0 0 19 15" fill="none" xmlns="http://www.w3.org/2000/svg">
<g clip-path="url(#clip0_369_5581)">
<path d="M1.77061 14.3489C1.2837 14.3489 0.863174 14.177 0.509051 13.8332C0.169683 13.4745 0 13.0485 0 12.5552V1.79361C0 1.30037 0.169683 0.881859 0.509051 0.538082C0.863174 0.179361 1.2837 0 1.77061 0H15.9355C16.4225 0 16.8355 0.179361 17.1749 0.538082C17.5291 0.881859 17.7061 1.30037 17.7061 1.79361V12.5552C17.7061 13.0485 17.5291 13.4745 17.1749 13.8332C16.8355 14.177 16.4225 14.3489 15.9355 14.3489H1.77061ZM8.85307 8.07125L15.9355 3.58723V1.79361L8.85307 6.27764L1.77061 1.79361V3.58723L8.85307 8.07125Z" fill="white"/>
</g>
<defs>
<clipPath id="clip0_369_5581">
<rect width="18.35" height="14.675" fill="white"/>
</clipPath>
</defs>
</svg>
