<svg width="17" height="17" viewBox="0 0 17 17" fill="none" xmlns="http://www.w3.org/2000/svg">
<g clip-path="url(#clip0_369_5574)">
<path d="M16.1713 12.15V14.593C16.1722 14.8198 16.1258 15.0443 16.0351 15.2521C15.9444 15.4599 15.8113 15.6464 15.6445 15.7998C15.4776 15.9531 15.2806 16.0699 15.066 16.1425C14.8516 16.2152 14.6242 16.2421 14.3987 16.2217C11.8967 15.9494 9.49318 15.0931 7.38154 13.7216C5.41691 12.4714 3.75125 10.8032 2.50286 8.83565C1.12868 6.71121 0.273499 4.29246 0.00659981 1.77534C-0.0137195 1.55014 0.0130031 1.32319 0.0850655 1.1089C0.157128 0.89462 0.272952 0.697713 0.425163 0.530719C0.577374 0.363724 0.762636 0.2303 0.969155 0.138941C1.17567 0.047583 1.39892 0.000291885 1.6247 7.8952e-05H4.06404C4.45864 -0.00381069 4.8412 0.136138 5.1404 0.393838C5.4396 0.651538 5.63503 1.0094 5.69025 1.40074C5.79321 2.18256 5.98416 2.9502 6.25944 3.68903C6.36884 3.9805 6.39251 4.29727 6.32766 4.60181C6.26282 4.90635 6.11215 5.18588 5.89354 5.40728L4.86088 6.4415C6.01839 8.48023 7.7039 10.1683 9.73956 11.3275L10.7722 10.2933C10.9933 10.0744 11.2724 9.92353 11.5765 9.85854C11.8806 9.79356 12.1969 9.8173 12.4879 9.92685C13.2256 10.2025 13.992 10.3938 14.7727 10.4969C15.1677 10.5527 15.5284 10.752 15.7863 11.0568C16.0442 11.3616 16.1812 11.7506 16.1713 12.15Z" fill="white"/>
</g>
<defs>
<clipPath id="clip0_369_5574">
<rect width="16.5875" height="16.6125" fill="white"/>
</clipPath>
</defs>
</svg>
